<svg data-v-0dd9719b="" version="1.0" xmlns="http://www.w3.org/2000/svg" xmlns:xlink="http://www.w3.org/1999/xlink" width="100%" height="100%" viewBox="0 0 340.000000 250.000000" preserveAspectRatio="xMidYMid meet" color-interpolation-filters="sRGB" style="margin: auto;"> <rect data-v-0dd9719b="" x="0" y="0" width="100%" height="100%" fill="#fff" fill-opacity="1" class="background"></rect> <rect data-v-0dd9719b="" x="0" y="0" width="100%" height="100%" fill="url(#watermark)" fill-opacity="1" class="watermarklayer"></rect> <g data-v-0dd9719b="" fill="#333" class="icon-text-wrapper icon-svg-group iconsvg" transform="translate(46.81000518798828,93.3711109161377)"><g class="iconsvg-imagesvg" transform="translate(0,0)"><g><rect fill="#333" fill-opacity="0" stroke-width="2" x="0" y="0" width="60" height="63.257775434897205" class="image-rect"></rect> <svg x="0" y="0" width="60" height="63.257775434897205" filtersec="colorsb4440032774" class="image-svg-svg primary" style="overflow: visible;"><svg xmlns="http://www.w3.org/2000/svg" viewBox="0 0 94.8499984741211 100.0000228881836"><path d="M94.85 43.38v42A14.7 14.7 0 0 1 80.18 100h-36.4L79 63.17l4.18 5.71L93.28 45zM73.53 0h6.65a14.7 14.7 0 0 1 14.67 14.64v13.23L84.76 38.44 65 44.12l4.88 6.62L22.69 100h-8A14.67 14.67 0 0 1 0 85.36v-5.25l18.45-19.28 4.18 5.71 10.06-23.86zM14.64 0h44.05L24.16 36.06 4.38 41.78l4.88 6.62L0 58.05V14.64A14.67 14.67 0 0 1 14.64 0z" fill="#f60"></path><path fill="#333" d="M18.65 57.32L0 76.84V61.33l12.2-12.77-4.08-5.51 25-7.19L22.09 62l-3.44-4.68zM79.28 59.69L40.67 100H25.84l46.95-49.06-4.07-5.55 25-7.19-11.03 26.14-3.41-4.65z"></path></svg></svg> <!----></g></g> <g transform="translate(67,12.573888778686523)"><g data-gra="path-name" fill-rule="" class="tp-name iconsvg-namesvg"><g transform="scale(1)"><g><path d="M20.53-26.3Q21.03-26.3 21.38-25.95 21.73-25.6 21.73-25.1L21.73-25.1Q21.73-24.65 21.38-24.3 21.03-23.95 20.53-23.95L20.53-23.95 12.59-23.95 12.59 0.37 16.46 0.37 16.46 1.56 5.56 1.56 5.56 0.37 9.34 0.37 9.34-23.95 1.03-23.95Q0.78-23.95 0.6-24.12 0.41-24.28 0.41-24.57L0.41-24.57Q0.41-24.81 0.6-24.98 0.78-25.14 1.03-25.14L1.03-25.14 17.33-25.14Q18.19-25.14 18.64-25.33 19.09-25.51 19.4-25.74 19.71-25.97 19.88-26.09L19.88-26.09 20.08-26.21Q20.33-26.3 20.53-26.3L20.53-26.3ZM29.88 2.1Q27.65 2.1 25.99 0.86 24.32-0.37 23.44-2.43 22.55-4.49 22.55-6.91L22.55-6.91Q22.55-9.05 23.19-10.95 23.83-12.84 24.98-14.24L24.98-14.24Q26.13-15.72 27.61-16.5 29.09-17.28 30.58-17.28L30.58-17.28Q32.14-17.28 33.46-16.38 34.77-15.47 35.53-13.97 36.3-12.47 36.3-10.82L36.3-10.82Q36.26-10.12 36.13-9.84 36.01-9.55 35.56-9.42L35.56-9.42Q34.98-9.3 31.85-9.07 28.72-8.85 25.56-8.72L25.56-8.72Q25.51-6.09 26.32-4.3 27.12-2.51 28.44-1.67 29.75-0.82 31.15-0.82L31.15-0.82Q33.42-0.82 35.51-2.92L35.51-2.92 36.13-1.98Q34.53 0.25 32.82 1.17 31.11 2.1 29.88 2.1L29.88 2.1ZM25.72-10.53Q29.92-10.53 32.14-10.66L32.14-10.66Q32.67-10.66 32.86-10.86 33.05-11.07 33.05-11.56L33.05-11.56Q33.05-13.25 32.1-14.49 31.15-15.72 29.67-15.72L29.67-15.72Q28.31-15.72 27.2-14.34 26.09-12.96 25.72-10.53L25.72-10.53ZM49.96-16.83Q50.82-16.09 50.82-15.14L50.82-15.14Q50.82-14.53 50.49-13.93 50.16-13.33 49.79-12.96 49.42-12.59 49.3-12.51L49.3-12.51Q48.02-14.03 46.42-14.03L46.42-14.03Q45.35-14.03 44.38-13.31 43.42-12.59 42.76-11.32L42.76-11.32 42.76 0.37 45.31 0.37 45.31 1.56 37.12 1.56 37.12 0.37 39.79 0.37 39.79-14.36Q39.79-14.53 39.67-14.65 39.55-14.77 39.38-14.77L39.38-14.77 37.33-14.77 37.33-15.8Q38.56-16.17 39.51-16.52 40.45-16.87 41.56-17.37L41.56-17.37Q41.81-17.45 41.89-17.45L41.89-17.45Q42.22-17.45 42.49-17.18 42.76-16.91 42.76-16.54L42.76-16.54 42.76-13.62Q43.54-15.39 45.04-16.44 46.54-17.49 48.02-17.49L48.02-17.49Q49.26-17.49 49.96-16.83L49.96-16.83ZM64.49-16.83Q65.35-16.09 65.35-15.14L65.35-15.14Q65.35-14.53 65.02-13.93 64.69-13.33 64.32-12.96 63.95-12.59 63.83-12.51L63.83-12.51Q62.55-14.03 60.95-14.03L60.95-14.03Q59.88-14.03 58.91-13.31 57.94-12.59 57.28-11.32L57.28-11.32 57.28 0.37 59.84 0.37 59.84 1.56 51.65 1.56 51.65 0.37 54.32 0.37 54.32-14.36Q54.32-14.53 54.2-14.65 54.07-14.77 53.91-14.77L53.91-14.77 51.85-14.77 51.85-15.8Q53.09-16.17 54.03-16.52 54.98-16.87 56.09-17.37L56.09-17.37Q56.34-17.45 56.42-17.45L56.42-17.45Q56.75-17.45 57.02-17.18 57.28-16.91 57.28-16.54L57.28-16.54 57.28-13.62Q58.07-15.39 59.57-16.44 61.07-17.49 62.55-17.49L62.55-17.49Q63.79-17.49 64.49-16.83L64.49-16.83ZM70.74 2.1Q68.77 2.1 67.47 0.56 66.17-0.99 66.17-3.05L66.17-3.05Q66.17-6.09 69.26-7.24L69.26-7.24 70.08-7.57Q72.14-8.4 73.42-8.95 74.69-9.51 75.19-9.96L75.19-9.96 75.19-10.82Q75.19-13 74.28-14.26 73.37-15.51 71.89-15.51L71.89-15.51Q70.86-15.51 70.12-14.53L70.12-14.53Q69.63-13.83 69.09-11.81L69.09-11.81Q68.81-10.86 68.02-10.86L68.02-10.86Q67.45-10.86 66.89-11.42 66.34-11.98 66.34-12.67L66.34-12.67Q66.34-13.21 66.98-14.32 67.61-15.43 69.05-16.36 70.49-17.28 72.8-17.28L72.8-17.28Q73.7-17.28 74.63-17 75.56-16.71 76.17-16.17L76.17-16.17Q77.16-15.19 77.61-14.05 78.07-12.92 78.07-11.32L78.07-11.32 78.07-1.89Q78.07-0.45 79.26-0.45L79.26-0.45Q79.96-0.45 80.74-1.19L80.74-1.19 81.11-0.12Q80.99 0.04 80.47 0.51 79.96 0.99 79.16 1.42 78.35 1.85 77.53 1.85L77.53 1.85Q76.46 1.85 75.86 1.05 75.27 0.25 75.27-0.58L75.27-0.58Q73.58 2.1 70.74 2.1L70.74 2.1ZM72.1-0.45Q72.84-0.45 73.72-0.91 74.61-1.36 75.19-1.98L75.19-1.98 75.19-8.52Q73.79-7.74 71.69-6.75L71.69-6.75Q70.53-6.17 69.96-5.47 69.38-4.77 69.38-3.7L69.38-3.7Q69.38-2.18 70.23-1.32 71.07-0.45 72.1-0.45L72.1-0.45ZM96.83 10.62L99.55 10.62 99.55 11.81 90.7 11.81 90.7 10.62 93.87 10.62 93.87-0.45Q93.33 0.33 92.26 1.11 91.19 1.89 89.79 1.89L89.79 1.89Q87.7 1.89 85.84 0.56 83.99-0.78 82.86-3.19 81.73-5.6 81.73-8.6L81.73-8.6Q81.73-10.99 82.74-13.02 83.74-15.06 85.47-16.26 87.2-17.45 89.18-17.45L89.18-17.45Q90.62-17.45 91.87-16.81 93.13-16.17 93.87-15.56L93.87-15.56 93.87-17.12Q94.03-17.2 94.53-17.35 95.02-17.49 95.56-17.49L95.56-17.49Q96.13-17.49 96.48-17.2 96.83-16.91 96.83-16.3L96.83-16.3 96.83 10.62ZM89.96 0.25Q91.15 0.25 92.33-0.7 93.5-1.65 93.87-2.84L93.87-2.84 93.87-14.32Q93.21-14.69 92.39-14.92 91.56-15.14 90.82-15.14L90.82-15.14Q89.26-15.14 87.94-14.22 86.63-13.29 85.86-11.56 85.1-9.84 85.1-7.53L85.1-7.53Q85.1-3.87 86.36-1.81 87.61 0.25 89.96 0.25L89.96 0.25ZM106.71 2.1Q104.65 2.1 103.33 0.56 102.02-0.99 102.02-4.2L102.02-4.2 102.02-14.36Q102.02-14.77 101.6-14.77L101.6-14.77 99.55-14.77 99.55-15.8Q100.95-16.21 101.83-16.54 102.72-16.87 103.83-17.37L103.83-17.37Q103.99-17.45 104.16-17.45L104.16-17.45Q104.49-17.45 104.73-17.18 104.98-16.91 104.98-16.54L104.98-16.54 104.98-5.27Q104.98-2.76 105.97-1.65 106.95-0.53 108.4-0.53L108.4-0.53Q110.53-0.53 112.47-2.55L112.47-2.55 112.47-14.03Q112.47-14.2 112.35-14.32 112.22-14.44 112.06-14.44L112.06-14.44 110-14.44 110-15.47Q111.4-15.88 112.18-16.17 112.96-16.46 114.24-17.04L114.24-17.04Q114.65-17.2 115.04-16.93 115.43-16.67 115.43-16.21L115.43-16.21 115.43-1.48Q115.43-0.95 115.62-0.6 115.8-0.25 116.17-0.25L116.17-0.25Q116.67-0.25 117.57-0.91L117.57-0.91 117.57 0.25Q117.04 0.82 116.28 1.15 115.51 1.48 114.77 1.48L114.77 1.48Q113.79 1.48 113.13 0.84 112.47 0.21 112.47-1.15L112.47-1.15Q110.7 0.49 109.4 1.3 108.11 2.1 106.71 2.1L106.71 2.1ZM122.96 2.1Q120.99 2.1 119.69 0.56 118.4-0.99 118.4-3.05L118.4-3.05Q118.4-6.09 121.48-7.24L121.48-7.24 122.3-7.57Q124.36-8.4 125.64-8.95 126.91-9.51 127.41-9.96L127.41-9.96 127.41-10.82Q127.41-13 126.5-14.26 125.6-15.51 124.12-15.51L124.12-15.51Q123.09-15.51 122.35-14.53L122.35-14.53Q121.85-13.83 121.32-11.81L121.32-11.81Q121.03-10.86 120.25-10.86L120.25-10.86Q119.67-10.86 119.12-11.42 118.56-11.98 118.56-12.67L118.56-12.67Q118.56-13.21 119.2-14.32 119.84-15.43 121.28-16.36 122.72-17.28 125.02-17.28L125.02-17.28Q125.93-17.28 126.85-17 127.78-16.71 128.4-16.17L128.4-16.17Q129.38-15.19 129.84-14.05 130.29-12.92 130.29-11.32L130.29-11.32 130.29-1.89Q130.29-0.45 131.48-0.45L131.48-0.45Q132.18-0.45 132.96-1.19L132.96-1.19 133.33-0.12Q133.21 0.04 132.7 0.51 132.18 0.99 131.38 1.42 130.58 1.85 129.75 1.85L129.75 1.85Q128.68 1.85 128.09 1.05 127.49 0.25 127.49-0.58L127.49-0.58Q125.8 2.1 122.96 2.1L122.96 2.1ZM124.32-0.45Q125.06-0.45 125.95-0.91 126.83-1.36 127.41-1.98L127.41-1.98 127.41-8.52Q126.01-7.74 123.91-6.75L123.91-6.75Q122.76-6.17 122.18-5.47 121.6-4.77 121.6-3.7L121.6-3.7Q121.6-2.18 122.45-1.32 123.29-0.45 124.32-0.45L124.32-0.45ZM150.16 0.37L152.51 0.37 152.51 1.56 144.98 1.56 144.98 0.37 147.2 0.37 147.2-9.88Q147.2-14.77 143.79-14.77L143.79-14.77Q141.85-14.77 139.63-12.63L139.63-12.63 139.63 0.37 142.06 0.37 142.06 1.56 133.95 1.56 133.95 0.37 136.63 0.37 136.63-14.36Q136.63-14.53 136.52-14.65 136.42-14.77 136.26-14.77L136.26-14.77 134.16-14.77 134.16-15.8Q135.56-16.21 136.44-16.54 137.33-16.87 138.44-17.37L138.44-17.37Q138.85-17.57 139.24-17.28 139.63-17 139.63-16.54L139.63-16.54 139.63-14.2Q140.74-15.43 142.18-16.36 143.62-17.28 145.27-17.28L145.27-17.28Q147.53-17.28 148.85-15.53 150.16-13.79 150.16-10.78L150.16-10.78 150.16 0.37ZM163.7-1.03L164.03 0.08Q164.03 0.12 163.44 0.66 162.84 1.19 161.93 1.65 161.03 2.1 159.92 2.1L159.92 2.1Q156.26 2.1 156.26-2.88L156.26-2.88 156.26-15.31 153.95-15.31Q153.66-15.31 153.5-15.49 153.33-15.68 153.33-15.93L153.33-15.93Q153.33-16.17 153.5-16.34 153.66-16.5 153.95-16.5L153.95-16.5 156.26-16.5 156.26-22.72Q156.42-22.76 156.91-22.9 157.41-23.05 157.9-23.05L157.9-23.05Q159.22-23.05 159.22-21.85L159.22-21.85 159.22-16.5 159.3-16.5Q160.12-16.5 160.6-16.69 161.07-16.87 161.56-17.24L161.56-17.24Q161.77-17.41 162-17.53 162.22-17.65 162.51-17.65L162.51-17.65Q163-17.65 163.35-17.3 163.7-16.95 163.7-16.5L163.7-16.5Q163.7-16.01 163.35-15.66 163-15.31 162.51-15.31L162.51-15.31 159.22-15.31 159.22-4.36Q159.22-0.33 161.4-0.33L161.4-0.33Q162.39-0.33 163.7-1.03L163.7-1.03ZM169.42 2.1Q167.45 2.1 166.15 0.56 164.86-0.99 164.86-3.05L164.86-3.05Q164.86-6.09 167.94-7.24L167.94-7.24 168.77-7.57Q170.82-8.4 172.1-8.95 173.37-9.51 173.87-9.96L173.87-9.96 173.87-10.82Q173.87-13 172.96-14.26 172.06-15.51 170.58-15.51L170.58-15.51Q169.55-15.51 168.81-14.53L168.81-14.53Q168.31-13.83 167.78-11.81L167.78-11.81Q167.49-10.86 166.71-10.86L166.71-10.86Q166.13-10.86 165.58-11.42 165.02-11.98 165.02-12.67L165.02-12.67Q165.02-13.21 165.66-14.32 166.3-15.43 167.74-16.36 169.18-17.28 171.48-17.28L171.48-17.28Q172.39-17.28 173.31-17 174.24-16.71 174.86-16.17L174.86-16.17Q175.84-15.19 176.3-14.05 176.75-12.92 176.75-11.32L176.75-11.32 176.75-1.89Q176.75-0.45 177.94-0.45L177.94-0.45Q178.64-0.45 179.42-1.19L179.42-1.19 179.79-0.12Q179.67 0.04 179.16 0.51 178.64 0.99 177.84 1.42 177.04 1.85 176.21 1.85L176.21 1.85Q175.14 1.85 174.55 1.05 173.95 0.25 173.95-0.58L173.95-0.58Q172.26 2.1 169.42 2.1L169.42 2.1ZM170.78-0.45Q171.52-0.45 172.41-0.91 173.29-1.36 173.87-1.98L173.87-1.98 173.87-8.52Q172.47-7.74 170.37-6.75L170.37-6.75Q169.22-6.17 168.64-5.47 168.07-4.77 168.07-3.7L168.07-3.7Q168.07-2.18 168.91-1.32 169.75-0.45 170.78-0.45L170.78-0.45Z" transform="translate(-0.4099999964237213, 26.299999237060547)"></path></g> <!----> <!----> <!----> <!----> <!----> <!----> <!----></g></g> <!----></g></g><defs v-gra="od"></defs></svg>